<?xml version="1.0" standalone="no"?>
<!DOCTYPE svg PUBLIC "-//W3C//DTD SVG 20010904//EN"
 "http://www.w3.org/TR/2001/REC-SVG-20010904/DTD/svg10.dtd">
<svg version="1.0" xmlns="http://www.w3.org/2000/svg"
 width="80.000000pt" height="20.000000pt" viewBox="600 -100 100.000000 400.000000"
 preserveAspectRatio="xMidYMid meet">
<g transform="translate(0.000000,300.000000) scale(0.100000,-0.100000)"
fill="#333" stroke="none">
<path d="M11270 2100 l0 -1030 200 0 200 0 2 316 3 316 145 -228 c79 -126 161
-247 182 -270 86 -93 217 -134 429 -134 l129 0 0 184 0 183 -82 7 c-152 13
-187 42 -342 290 l-105 169 21 31 c13 17 132 183 265 369 134 186 243 343 243
348 0 6 -93 8 -236 7 l-237 -3 -206 -286 -206 -287 -3 524 -2 524 -200 0 -200
0 0 -1030z"/>
<path d="M7700 2055 l0 -1035 200 0 200 0 0 317 0 316 145 -229 c194 -306 244
-353 415 -390 36 -7 122 -14 193 -14 l127 0 0 184 0 184 -77 7 c-94 8 -148 30
-195 79 -31 32 -248 364 -248 379 0 4 119 172 265 374 145 202 265 371 265
376 0 4 -107 7 -237 7 l-238 -1 -205 -286 -205 -287 -5 525 -5 524 -197 3
-198 2 0 -1035z"/>
<path d="M9128 3085 c-5 -5 -8 -73 -8 -152 l0 -143 200 0 200 0 0 145 0 145
-52 0 c-29 0 -116 3 -193 6 -77 4 -143 3 -147 -1z"/>
<path d="M2794 2629 c-340 -31 -543 -290 -483 -615 24 -128 95 -227 206 -282
78 -40 111 -48 296 -77 87 -14 170 -31 185 -39 76 -39 74 -161 -3 -212 -43
-28 -145 -39 -242 -26 -115 15 -147 25 -218 67 l-59 36 -123 -123 c-68 -67
-123 -128 -123 -135 0 -20 132 -112 205 -142 112 -47 210 -63 380 -63 175 0
261 18 377 79 206 108 296 317 244 564 -20 90 -54 155 -114 211 -86 80 -154
106 -375 138 -176 26 -200 34 -232 71 -48 58 -22 140 56 180 35 17 59 21 133
21 105 -1 165 -17 228 -60 l45 -31 123 124 124 124 -24 27 c-111 120 -356 186
-606 163z"/>
<path d="M4105 2630 c-145 -14 -259 -67 -360 -166 -77 -78 -128 -174 -151
-289 -23 -114 -23 -586 0 -700 50 -251 238 -422 498 -455 155 -19 305 10 423
81 73 44 175 151 208 220 57 118 62 156 62 504 0 348 -4 380 -63 505 -39 83
-158 198 -252 243 -106 50 -229 69 -365 57z m121 -365 c57 -17 96 -52 120
-110 46 -110 42 -581 -6 -680 -76 -158 -309 -132 -360 40 -17 56 -25 430 -11
539 16 134 58 193 156 217 44 10 47 10 101 -6z"/>
<path d="M5455 2630 c-143 -14 -258 -66 -358 -164 -77 -75 -120 -149 -149
-252 -20 -76 -22 -104 -26 -631 l-4 -553 201 0 201 0 0 468 c0 257 4 504 10
550 11 101 38 154 98 196 36 26 53 31 100 31 100 -1 178 -64 201 -165 7 -28
11 -245 11 -562 l0 -518 200 0 200 0 0 543 c0 595 -3 622 -60 745 -43 92 -161
207 -261 255 -105 50 -229 69 -364 57z"/>
<path d="M6820 2629 c-196 -20 -375 -142 -455 -311 -57 -120 -68 -215 -62
-538 5 -297 12 -349 64 -458 42 -87 159 -200 253 -244 99 -47 165 -62 280 -61
69 0 111 6 154 20 l58 21 -4 -107 c-9 -208 -68 -268 -275 -279 l-103 -5 0
-175 0 -174 178 4 c157 4 185 8 250 31 174 61 275 169 329 354 15 52 18 130
21 733 2 470 0 695 -8 742 -27 158 -141 309 -290 381 -124 60 -242 80 -390 66z
m190 -374 c32 -16 63 -51 84 -93 15 -29 16 -71 14 -351 l-3 -318 -28 -42 c-64
-97 -211 -108 -300 -23 -48 46 -59 104 -64 339 -7 309 13 420 86 472 55 39
150 46 211 16z"/>
<path d="M9100 2071 c0 -585 4 -637 55 -749 88 -192 252 -288 513 -299 l122
-6 0 192 0 191 -52 0 c-60 0 -140 33 -175 71 -12 13 -30 42 -40 64 -16 37 -18
85 -21 558 l-3 517 -199 0 -200 0 0 -539z"/>
<path d="M10381 2594 c-163 -35 -319 -152 -386 -288 -61 -123 -69 -183 -69
-506 0 -322 8 -383 68 -505 32 -66 112 -158 173 -200 178 -124 457 -140 662
-39 136 67 244 204 286 364 26 98 42 90 -185 90 l-199 0 -19 -42 c-39 -88
-101 -123 -202 -116 -112 8 -162 75 -180 239 -21 199 -7 474 29 554 36 81 123
120 226 101 48 -9 110 -67 131 -122 l17 -44 198 0 199 0 0 23 c-1 91 -81 256
-166 342 -136 136 -369 196 -583 149z"/>
<path d="M257 2327 c-38 -147 -257 -1213 -257 -1245 0 -43 0 -43 32 -40 31 3
32 4 50 88 31 147 25 140 57 74 69 -142 202 -210 362 -185 96 16 163 52 243
133 126 128 182 283 174 489 -4 107 -7 122 -36 182 -39 78 -93 128 -171 158
-46 17 -73 20 -152 17 -87 -3 -104 -7 -171 -41 -46 -22 -91 -54 -117 -82 -22
-24 -41 -43 -41 -40 0 2 25 118 55 257 30 139 55 254 55 255 0 2 -18 3 -39 3
-32 0 -40 -4 -44 -23z m429 -421 c104 -48 156 -148 155 -298 -1 -163 -59 -313
-160 -415 -76 -76 -144 -106 -236 -106 -121 0 -206 59 -263 182 -50 105 -30
277 49 433 38 76 133 171 200 203 74 34 182 35 255 1z"/>
<path d="M1052 1963 c3 -10 45 -221 93 -469 l89 -451 -49 -79 c-59 -96 -109
-160 -138 -176 -12 -6 -51 -14 -86 -17 -60 -6 -65 -8 -72 -33 -4 -15 -4 -29
-1 -32 9 -10 125 -6 165 5 44 12 109 67 142 119 12 19 158 271 325 560 166
289 311 540 322 558 l20 32 -49 0 -48 0 -235 -416 c-129 -229 -236 -410 -237
-402 -2 7 -35 184 -73 393 -39 209 -72 390 -75 403 -5 19 -12 22 -51 22 -39 0
-46 -3 -42 -17z"/>
</g>
</svg>
